<?xml version="1.0" standalone="no"?>
<!DOCTYPE svg PUBLIC "-//W3C//DTD SVG 20010904//EN"
 "http://www.w3.org/TR/2001/REC-SVG-20010904/DTD/svg10.dtd">
<svg version="1.0" xmlns="http://www.w3.org/2000/svg"
 width="2542.000000pt" height="2543.000000pt" viewBox="0 0 2542.000000 2543.000000"
 preserveAspectRatio="xMidYMid meet">

<g transform="translate(0.000000,2543.000000) scale(0.100000,-0.100000)"
fill="#000000" stroke="none">
<path d="M10570 21074 c-19 -2 -73 -9 -120 -15 -454 -55 -915 -251 -1280 -543
-303 -243 -595 -595 -825 -996 -512 -891 -856 -2212 -930 -3575 l-6 -110 63
120 c373 704 949 1184 1740 1449 820 276 1793 351 3516 271 l324 -15 511 314
c685 420 1482 906 2039 1244 252 152 458 281 458 285 0 17 -346 360 -425 420
-151 116 -204 187 -205 270 0 34 4 40 35 53 53 22 150 17 318 -16 419 -82 677
-90 898 -29 42 12 192 81 372 173 326 165 479 233 681 302 240 82 450 108 579
70 l58 -17 -7 -57 c-10 -84 -40 -176 -90 -273 -105 -205 -248 -376 -629 -754
-166 -165 -315 -320 -332 -345 -125 -185 -200 -429 -258 -839 -27 -186 -49
-268 -86 -315 -33 -42 -84 -29 -145 36 -40 42 -57 75 -100 201 -32 91 -256
567 -267 567 -3 0 -243 -133 -534 -296 -1236 -692 -1843 -1037 -1838 -1042 11
-11 537 -31 985 -38 478 -7 630 1 895 46 838 143 1501 551 1997 1231 327 448
584 1057 713 1694 31 153 79 475 71 482 -3 4 -1341 18 -2996 33 -1196 11
-5120 21 -5180 14z"/>
<path d="M16270 15694 c-19 -4 -430 -21 -825 -35 -595 -20 -1661 -27 -2565
-17 -921 10 -1135 6 -1470 -27 -387 -40 -841 -124 -1155 -217 -52 -15 -145
-65 -355 -191 -618 -370 -960 -590 -1125 -722 -124 -100 -349 -322 -439 -435
-363 -456 -513 -960 -492 -1655 29 -985 307 -1725 851 -2270 460 -460 1094
-778 2000 -1004 402 -99 722 -146 1115 -160 341 -13 760 11 1075 62 79 13 76
13 -185 19 -376 9 -666 52 -990 147 -765 224 -1349 695 -1675 1352 -128 259
-169 419 -169 659 -1 142 3 178 23 254 51 194 152 372 303 531 424 449 1252
775 2353 929 325 45 604 68 1030 86 347 14 534 46 800 137 803 274 1464 1014
1862 2083 52 140 143 436 143 465 0 11 -12 15 -47 14 -27 -1 -55 -3 -63 -5z"/>
<path d="M13008 7393 l-288 -288 0 -833 0 -832 1258 2 1257 3 85 31 c110 39
183 88 268 179 234 250 229 646 -11 888 -121 122 -241 180 -407 198 -47 5
-316 9 -597 9 -500 0 -514 1 -533 20 -26 26 -25 60 1 94 l20 26 707 0 707 0
290 290 290 290 -1021 0 c-985 0 -1024 -1 -1098 -20 -114 -29 -198 -74 -281
-152 -92 -86 -140 -158 -179 -268 -27 -77 -30 -97 -31 -210 0 -102 4 -138 22
-195 50 -158 175 -307 319 -382 142 -74 134 -73 756 -73 380 0 565 -3 587 -11
56 -20 70 -83 25 -118 -26 -21 -34 -21 -728 -21 l-701 0 -210 -210 -210 -210
-5 1040 -5 1040 -287 -287z"/>
<path d="M5320 6455 l0 -1015 1160 0 1160 0 0 290 0 290 -870 0 -870 0 0 75 0
75 725 0 725 0 0 290 0 290 -725 0 -725 0 0 70 0 70 727 0 728 0 212 212 213
213 0 -938 0 -937 1160 0 1160 0 0 290 0 290 -870 0 -870 0 0 75 0 75 725 0
725 0 0 290 0 290 -725 0 -725 0 0 70 0 70 727 0 728 0 217 217 218 218 0
-760 0 -760 290 -290 290 -290 0 473 0 472 596 0 c509 0 605 2 657 16 232 60
423 258 472 491 31 145 10 307 -57 443 -23 46 -59 92 -123 155 -102 102 -171
143 -299 175 -78 20 -111 20 -3418 20 l-3338 0 0 -1015z m6647 413 c29 -27 30
-71 3 -98 -20 -20 -33 -20 -580 -20 l-560 0 0 70 0 70 557 0 557 0 23 -22z"/>
<path d="M16743 7456 c-428 -81 -763 -428 -822 -850 -7 -48 -11 -286 -11 -622
l0 -544 290 0 290 0 0 220 0 220 580 0 580 0 0 -327 0 -328 290 290 290 290 0
371 c0 400 -6 471 -54 611 -107 313 -381 567 -706 654 -77 20 -111 22 -370 25
-207 2 -304 -1 -357 -10z m627 -594 c148 -59 259 -202 277 -354 l6 -48 -582 0
-581 0 0 23 c0 41 30 141 57 186 56 97 144 167 251 202 50 16 85 18 287 16
211 -2 235 -4 285 -25z"/>
<path d="M18230 7180 l0 -290 435 0 435 0 0 -832 0 -833 290 290 290 290 0
542 0 543 293 0 292 0 290 290 290 290 -1308 0 -1307 0 0 -290z"/>
</g>
</svg>
